<?xml version="1.0" standalone="no"?>
<!DOCTYPE svg PUBLIC "-//W3C//DTD SVG 20010904//EN"
 "http://www.w3.org/TR/2001/REC-SVG-20010904/DTD/svg10.dtd">
<svg version="1.0" xmlns="http://www.w3.org/2000/svg"
 width="1024.000000pt" height="1024.000000pt" viewBox="0 0 1024.000000 1024.000000"
 preserveAspectRatio="xMidYMid meet">

<g transform="translate(0.000000,1024.000000) scale(0.100000,-0.100000)"
fill="#000000" stroke="none">
<path d="M5635 7450 c-315 -72 -557 -264 -695 -552 -64 -134 -82 -219 -83
-388 -1 -128 2 -157 26 -245 31 -112 94 -252 161 -353 96 -146 317 -442 548
-734 134 -169 246 -307 249 -307 13 -2 453 565 666 859 189 260 256 389 299
576 27 116 24 301 -5 419 -93 367 -396 650 -783 729 -104 21 -280 20 -383 -4z
m352 -545 c128 -48 225 -149 270 -278 26 -75 23 -214 -6 -288 -47 -121 -138
-216 -251 -261 -80 -32 -242 -32 -322 0 -110 44 -206 140 -249 249 -19 48 -23
78 -24 169 0 108 1 112 38 187 57 114 150 198 260 232 23 8 81 14 129 14 70 1
101 -4 155 -24z"/>
<path d="M2025 7450 c-212 -19 -341 -122 -380 -306 -12 -58 -15 -225 -15
-1019 1 -547 5 -981 10 -1024 23 -173 115 -279 286 -327 53 -15 153 -17 949
-21 1033 -6 1101 -3 1213 52 84 42 136 100 174 192 l23 58 3 1005 c2 698 0
1024 -8 1069 -19 111 -83 209 -173 265 -15 9 -63 27 -105 39 -76 21 -89 21
-982 23 -498 1 -945 -2 -995 -6z m1948 -234 c22 -11 51 -37 65 -59 l27 -41 3
-995 c2 -893 1 -1000 -13 -1038 -19 -50 -61 -88 -113 -103 -24 -6 -361 -10
-978 -10 -811 0 -947 2 -991 15 -59 17 -97 56 -113 113 -14 51 -14 1963 0
2014 6 21 27 51 50 72 37 34 51 40 110 49 14 3 450 4 970 3 908 -1 947 -2 983
-20z"/>
<path d="M2360 6060 l0 -810 178 2 177 3 3 283 2 282 239 0 c271 0 344 12 457
75 124 70 200 167 234 302 79 306 -76 580 -372 659 -42 11 -146 14 -485 14
l-433 0 0 -810z m845 489 c30 -15 62 -42 80 -68 28 -40 30 -49 30 -131 0 -82
-2 -91 -30 -131 -19 -27 -50 -54 -84 -71 l-53 -28 -214 0 -214 0 0 231 0 231
218 -4 c211 -3 219 -4 267 -29z"/>
<path d="M5240 5244 c-200 -29 -359 -89 -414 -158 -25 -30 -31 -48 -34 -99 -5
-84 13 -126 74 -168 102 -70 463 -160 729 -180 441 -35 1020 45 1201 164 66
45 85 73 91 145 15 164 -124 248 -496 297 -107 14 -115 14 -127 -2 -7 -10 -31
-44 -54 -75 l-41 -58 33 0 c105 0 394 -65 463 -103 58 -33 56 -50 -8 -81 -237
-112 -843 -161 -1227 -100 -223 36 -460 110 -460 143 0 17 54 49 115 69 62 21
267 58 365 66 30 2 56 5 58 5 1 1 -23 35 -54 76 -64 85 -53 82 -214 59z"/>
<path d="M7640 4144 c-105 -28 -198 -101 -244 -191 -29 -58 -42 -165 -27 -235
35 -170 142 -256 389 -313 177 -41 232 -78 232 -155 0 -76 -55 -120 -158 -128
-37 -2 -87 1 -112 8 -51 14 -120 76 -120 109 0 20 -4 21 -125 21 l-125 0 0
-52 c1 -127 93 -235 255 -299 53 -20 77 -23 195 -23 153 0 211 16 308 79 105
70 147 162 140 309 -9 202 -100 290 -379 366 -205 56 -249 85 -249 167 0 54
35 95 96 112 112 31 224 -7 260 -89 l18 -40 124 0 124 0 -7 43 c-18 118 -77
208 -172 264 -103 60 -295 81 -423 47z"/>
<path d="M1012 3518 l3 -623 133 -3 132 -3 0 221 0 220 129 0 c198 0 293 26
381 106 91 83 126 180 117 329 -11 187 -92 300 -254 356 -51 17 -85 19 -350
19 l-293 0 2 -622z m531 378 c51 -19 73 -40 93 -92 31 -82 -2 -171 -79 -210
-21 -11 -70 -18 -154 -22 l-123 -5 0 172 0 171 113 0 c68 -1 127 -6 150 -14z"/>
<path d="M2265 4128 c-3 -7 -97 -281 -209 -608 -112 -327 -207 -603 -211 -613
-7 -16 2 -17 135 -15 l142 3 41 128 41 127 212 0 213 0 43 -130 42 -130 139 0
c107 0 138 3 135 13 -3 6 -99 288 -213 625 l-209 612 -148 0 c-110 0 -150 -3
-153 -12z m219 -525 c36 -117 66 -214 66 -217 0 -3 -61 -6 -135 -6 -74 0 -135
4 -135 8 0 5 25 89 55 188 77 247 77 246 80 242 2 -2 33 -99 69 -215z"/>
<path d="M3100 3515 l0 -626 133 3 132 3 3 228 2 227 74 0 74 0 115 -227 115
-228 161 -3 c89 -1 161 -1 161 2 0 2 -46 82 -103 177 -124 210 -181 309 -176
312 138 89 178 134 205 234 24 90 16 230 -18 305 -31 67 -85 128 -143 162 -84
50 -135 56 -447 56 l-288 0 0 -625z m540 385 c20 -5 51 -26 70 -45 33 -34 35
-40 35 -104 0 -58 -4 -73 -27 -104 -37 -48 -73 -57 -222 -60 l-126 -2 0 163 0
162 118 0 c64 0 133 -5 152 -10z"/>
<path d="M4200 3515 l0 -625 130 0 130 0 0 185 0 184 66 83 c37 46 68 84 69
86 1 1 67 -119 146 -268 l144 -269 164 -1 c142 0 162 2 157 15 -3 9 -87 154
-187 323 -100 169 -197 332 -215 362 -27 46 -30 57 -19 70 48 56 385 472 385
475 0 3 -72 5 -159 5 l-159 0 -193 -251 -194 -251 -3 251 -2 251 -130 0 -130
0 0 -625z"/>
<path d="M5194 4123 c3 -10 68 -274 146 -588 77 -313 144 -587 150 -607 l11
-38 124 0 124 0 11 38 c5 20 57 208 114 417 l104 380 12 -45 c6 -25 31 -119
55 -210 24 -91 65 -244 90 -340 25 -96 51 -190 56 -208 l11 -33 126 3 126 3 8
30 c5 17 71 293 148 614 77 321 143 588 146 592 3 5 -53 9 -124 9 l-130 0 -21
-92 c-11 -51 -53 -235 -92 -408 -39 -173 -73 -317 -75 -319 -5 -5 -2 -16 -99
384 -47 198 -91 377 -96 398 l-10 37 -123 0 -123 0 -27 -102 c-172 -653 -194
-731 -200 -708 -13 56 -176 798 -176 804 0 3 -61 6 -136 6 -124 0 -135 -1
-130 -17z"/>
<path d="M6900 3515 l0 -626 130 3 130 3 3 623 2 622 -132 0 -133 0 0 -625z"/>
<path d="M8430 3515 l0 -625 398 2 397 3 3 123 3 122 -266 0 -265 0 0 130 0
130 220 0 220 0 0 115 0 115 -220 0 -220 0 0 135 0 135 265 0 265 0 0 120 0
120 -400 0 -400 0 0 -625z"/>
</g>
</svg>
